<mxfile host="app.diagrams.net" modified="2023-02-14T02:48:06.539Z" agent="5.0 (Windows NT 10.0; Win64; x64) AppleWebKit/537.36 (KHTML, like Gecko) Chrome/109.0.0.0 Safari/537.36" etag="rjpQ4UhGehwN_EZ4LAvr" version="20.8.18" type="github" pages="4">
  <diagram name="페이지-1" id="8lj-b28wSVTQeocqOoJ_">
    <mxGraphModel dx="2261" dy="731" grid="1" gridSize="10" guides="1" tooltips="1" connect="1" arrows="1" fold="1" page="1" pageScale="1" pageWidth="827" pageHeight="1169" math="0" shadow="0">
      <root>
        <mxCell id="0" />
        <mxCell id="1" parent="0" />
        <mxCell id="Rxt3rg6DZINgy6mpVnWR-56" value="" style="endArrow=classic;html=1;rounded=0;fontSize=12;entryX=0;entryY=0.15;entryDx=0;entryDy=0;entryPerimeter=0;" parent="1" target="Rxt3rg6DZINgy6mpVnWR-6" edge="1">
          <mxGeometry width="50" height="50" relative="1" as="geometry">
            <mxPoint x="-210" y="265" as="sourcePoint" />
            <mxPoint x="230" y="215" as="targetPoint" />
          </mxGeometry>
        </mxCell>
        <mxCell id="Rxt3rg6DZINgy6mpVnWR-1" value="DB" style="shape=cylinder3;whiteSpace=wrap;html=1;boundedLbl=1;backgroundOutline=1;size=15;" parent="1" vertex="1">
          <mxGeometry x="500" y="255" width="70" height="80" as="geometry" />
        </mxCell>
        <mxCell id="Rxt3rg6DZINgy6mpVnWR-23" value="" style="edgeStyle=orthogonalEdgeStyle;rounded=0;orthogonalLoop=1;jettySize=auto;html=1;" parent="1" source="Rxt3rg6DZINgy6mpVnWR-2" target="Rxt3rg6DZINgy6mpVnWR-1" edge="1">
          <mxGeometry relative="1" as="geometry" />
        </mxCell>
        <mxCell id="Rxt3rg6DZINgy6mpVnWR-2" value="DAO" style="whiteSpace=wrap;html=1;aspect=fixed;" parent="1" vertex="1">
          <mxGeometry x="360" y="255" width="80" height="80" as="geometry" />
        </mxCell>
        <mxCell id="Rxt3rg6DZINgy6mpVnWR-22" value="" style="edgeStyle=orthogonalEdgeStyle;rounded=0;orthogonalLoop=1;jettySize=auto;html=1;" parent="1" source="Rxt3rg6DZINgy6mpVnWR-3" target="Rxt3rg6DZINgy6mpVnWR-2" edge="1">
          <mxGeometry relative="1" as="geometry" />
        </mxCell>
        <mxCell id="Rxt3rg6DZINgy6mpVnWR-3" value="Service" style="whiteSpace=wrap;html=1;aspect=fixed;" parent="1" vertex="1">
          <mxGeometry x="230" y="255" width="80" height="80" as="geometry" />
        </mxCell>
        <mxCell id="Rxt3rg6DZINgy6mpVnWR-21" value="" style="edgeStyle=orthogonalEdgeStyle;rounded=0;orthogonalLoop=1;jettySize=auto;html=1;" parent="1" source="Rxt3rg6DZINgy6mpVnWR-4" target="Rxt3rg6DZINgy6mpVnWR-3" edge="1">
          <mxGeometry relative="1" as="geometry" />
        </mxCell>
        <mxCell id="Rxt3rg6DZINgy6mpVnWR-4" value="Controller" style="whiteSpace=wrap;html=1;aspect=fixed;" parent="1" vertex="1">
          <mxGeometry x="100" y="255" width="80" height="80" as="geometry" />
        </mxCell>
        <mxCell id="Rxt3rg6DZINgy6mpVnWR-5" value="JSP" style="whiteSpace=wrap;html=1;aspect=fixed;" parent="1" vertex="1">
          <mxGeometry x="-160" y="445" width="80" height="80" as="geometry" />
        </mxCell>
        <mxCell id="Rxt3rg6DZINgy6mpVnWR-16" value="" style="edgeStyle=orthogonalEdgeStyle;rounded=0;orthogonalLoop=1;jettySize=auto;html=1;" parent="1" source="Rxt3rg6DZINgy6mpVnWR-6" target="Rxt3rg6DZINgy6mpVnWR-4" edge="1">
          <mxGeometry relative="1" as="geometry" />
        </mxCell>
        <mxCell id="Rxt3rg6DZINgy6mpVnWR-6" value="Dispatcher&lt;br&gt;Servlet" style="whiteSpace=wrap;html=1;aspect=fixed;" parent="1" vertex="1">
          <mxGeometry x="-40" y="255" width="80" height="80" as="geometry" />
        </mxCell>
        <mxCell id="Rxt3rg6DZINgy6mpVnWR-8" value="Internal&lt;br&gt;Resource&lt;br&gt;ViewResolver" style="whiteSpace=wrap;html=1;aspect=fixed;" parent="1" vertex="1">
          <mxGeometry x="124" y="505" width="80" height="80" as="geometry" />
        </mxCell>
        <mxCell id="Rxt3rg6DZINgy6mpVnWR-31" value="" style="endArrow=classic;html=1;rounded=0;entryX=1;entryY=0.75;entryDx=0;entryDy=0;" parent="1" target="Rxt3rg6DZINgy6mpVnWR-2" edge="1">
          <mxGeometry relative="1" as="geometry">
            <mxPoint x="500" y="315" as="sourcePoint" />
            <mxPoint x="600" y="315" as="targetPoint" />
          </mxGeometry>
        </mxCell>
        <mxCell id="Rxt3rg6DZINgy6mpVnWR-32" value="" style="shape=message;html=1;outlineConnect=0;" parent="Rxt3rg6DZINgy6mpVnWR-31" vertex="1">
          <mxGeometry width="20" height="14" relative="1" as="geometry">
            <mxPoint x="-10" y="-7" as="offset" />
          </mxGeometry>
        </mxCell>
        <mxCell id="Rxt3rg6DZINgy6mpVnWR-33" value="" style="endArrow=classic;html=1;rounded=0;entryX=1;entryY=0.75;entryDx=0;entryDy=0;exitX=0;exitY=0.75;exitDx=0;exitDy=0;" parent="1" source="Rxt3rg6DZINgy6mpVnWR-2" target="Rxt3rg6DZINgy6mpVnWR-3" edge="1">
          <mxGeometry relative="1" as="geometry">
            <mxPoint x="510" y="325" as="sourcePoint" />
            <mxPoint x="450" y="325" as="targetPoint" />
          </mxGeometry>
        </mxCell>
        <mxCell id="Rxt3rg6DZINgy6mpVnWR-34" value="" style="shape=message;html=1;outlineConnect=0;" parent="Rxt3rg6DZINgy6mpVnWR-33" vertex="1">
          <mxGeometry width="20" height="14" relative="1" as="geometry">
            <mxPoint x="-10" y="-7" as="offset" />
          </mxGeometry>
        </mxCell>
        <mxCell id="Rxt3rg6DZINgy6mpVnWR-35" value="" style="endArrow=classic;html=1;rounded=0;entryX=1;entryY=0.75;entryDx=0;entryDy=0;" parent="1" target="Rxt3rg6DZINgy6mpVnWR-4" edge="1">
          <mxGeometry relative="1" as="geometry">
            <mxPoint x="230" y="315" as="sourcePoint" />
            <mxPoint x="250" y="235" as="targetPoint" />
            <Array as="points" />
          </mxGeometry>
        </mxCell>
        <mxCell id="Rxt3rg6DZINgy6mpVnWR-36" value="" style="shape=message;html=1;outlineConnect=0;" parent="Rxt3rg6DZINgy6mpVnWR-35" vertex="1">
          <mxGeometry width="20" height="14" relative="1" as="geometry">
            <mxPoint x="-10" y="-7" as="offset" />
          </mxGeometry>
        </mxCell>
        <mxCell id="Rxt3rg6DZINgy6mpVnWR-37" value="" style="endArrow=classic;html=1;rounded=0;exitX=0;exitY=0.75;exitDx=0;exitDy=0;" parent="1" source="Rxt3rg6DZINgy6mpVnWR-4" edge="1">
          <mxGeometry relative="1" as="geometry">
            <mxPoint x="150" y="235" as="sourcePoint" />
            <mxPoint x="30" y="315" as="targetPoint" />
          </mxGeometry>
        </mxCell>
        <mxCell id="Rxt3rg6DZINgy6mpVnWR-38" value="" style="shape=message;html=1;outlineConnect=0;" parent="Rxt3rg6DZINgy6mpVnWR-37" vertex="1">
          <mxGeometry width="20" height="14" relative="1" as="geometry">
            <mxPoint x="-10" y="-7" as="offset" />
          </mxGeometry>
        </mxCell>
        <mxCell id="Rxt3rg6DZINgy6mpVnWR-39" value="ModelAndView" style="text;html=1;strokeColor=none;fillColor=none;align=center;verticalAlign=middle;whiteSpace=wrap;rounded=0;" parent="1" vertex="1">
          <mxGeometry x="30" y="335" width="60" height="30" as="geometry" />
        </mxCell>
        <mxCell id="Rxt3rg6DZINgy6mpVnWR-43" value="prefix+ViewName+suffix" style="text;html=1;strokeColor=none;fillColor=none;align=center;verticalAlign=middle;whiteSpace=wrap;rounded=0;" parent="1" vertex="1">
          <mxGeometry x="40" y="435" width="60" height="30" as="geometry" />
        </mxCell>
        <mxCell id="Rxt3rg6DZINgy6mpVnWR-41" value="View" style="endArrow=classic;html=1;rounded=0;exitX=0.75;exitY=1;exitDx=0;exitDy=0;entryX=0.75;entryY=0;entryDx=0;entryDy=0;fontSize=16;" parent="1" source="Rxt3rg6DZINgy6mpVnWR-6" target="Rxt3rg6DZINgy6mpVnWR-8" edge="1">
          <mxGeometry width="50" height="50" relative="1" as="geometry">
            <mxPoint x="180" y="265" as="sourcePoint" />
            <mxPoint x="230" y="215" as="targetPoint" />
          </mxGeometry>
        </mxCell>
        <mxCell id="Rxt3rg6DZINgy6mpVnWR-48" value="" style="endArrow=classic;html=1;rounded=0;entryX=0.5;entryY=1;entryDx=0;entryDy=0;exitX=0.338;exitY=-0.012;exitDx=0;exitDy=0;exitPerimeter=0;" parent="1" source="Rxt3rg6DZINgy6mpVnWR-8" target="Rxt3rg6DZINgy6mpVnWR-6" edge="1">
          <mxGeometry width="50" height="50" relative="1" as="geometry">
            <mxPoint x="180" y="265" as="sourcePoint" />
            <mxPoint x="230" y="215" as="targetPoint" />
          </mxGeometry>
        </mxCell>
        <mxCell id="Rxt3rg6DZINgy6mpVnWR-49" value="Model" style="endArrow=classic;html=1;rounded=0;exitX=0.25;exitY=1;exitDx=0;exitDy=0;entryX=0.75;entryY=0;entryDx=0;entryDy=0;" parent="1" source="Rxt3rg6DZINgy6mpVnWR-6" target="Rxt3rg6DZINgy6mpVnWR-5" edge="1">
          <mxGeometry width="50" height="50" relative="1" as="geometry">
            <mxPoint x="180" y="265" as="sourcePoint" />
            <mxPoint x="230" y="215" as="targetPoint" />
          </mxGeometry>
        </mxCell>
        <mxCell id="Rxt3rg6DZINgy6mpVnWR-50" value="" style="endArrow=classic;html=1;rounded=0;fontSize=16;exitX=0.4;exitY=0.013;exitDx=0;exitDy=0;exitPerimeter=0;entryX=0;entryY=1;entryDx=0;entryDy=0;" parent="1" source="Rxt3rg6DZINgy6mpVnWR-5" target="Rxt3rg6DZINgy6mpVnWR-6" edge="1">
          <mxGeometry width="50" height="50" relative="1" as="geometry">
            <mxPoint x="180" y="265" as="sourcePoint" />
            <mxPoint x="230" y="215" as="targetPoint" />
          </mxGeometry>
        </mxCell>
        <mxCell id="Rxt3rg6DZINgy6mpVnWR-51" value="&lt;font style=&quot;font-size: 13px;&quot;&gt;Request&lt;/font&gt;" style="ellipse;whiteSpace=wrap;html=1;aspect=fixed;fontSize=16;align=center;" parent="1" vertex="1">
          <mxGeometry x="-190" y="245" width="60" height="60" as="geometry" />
        </mxCell>
        <mxCell id="Rxt3rg6DZINgy6mpVnWR-52" value="&lt;font style=&quot;font-size: 12px;&quot;&gt;Response&lt;/font&gt;" style="ellipse;whiteSpace=wrap;html=1;aspect=fixed;fontSize=16;" parent="1" vertex="1">
          <mxGeometry x="-120" y="245" width="60" height="60" as="geometry" />
        </mxCell>
        <mxCell id="Rxt3rg6DZINgy6mpVnWR-53" value="URL(ip:port)&amp;nbsp;" style="text;html=1;strokeColor=none;fillColor=none;align=center;verticalAlign=middle;whiteSpace=wrap;rounded=0;fontSize=12;" parent="1" vertex="1">
          <mxGeometry x="-200" y="175" width="60" height="30" as="geometry" />
        </mxCell>
        <mxCell id="Rxt3rg6DZINgy6mpVnWR-54" value="method" style="text;html=1;strokeColor=none;fillColor=none;align=center;verticalAlign=middle;whiteSpace=wrap;rounded=0;fontSize=12;" parent="1" vertex="1">
          <mxGeometry x="-200" y="195" width="60" height="30" as="geometry" />
        </mxCell>
        <mxCell id="Rxt3rg6DZINgy6mpVnWR-55" value="parameter" style="text;html=1;strokeColor=none;fillColor=none;align=center;verticalAlign=middle;whiteSpace=wrap;rounded=0;fontSize=12;" parent="1" vertex="1">
          <mxGeometry x="-200" y="215" width="60" height="30" as="geometry" />
        </mxCell>
        <mxCell id="Rxt3rg6DZINgy6mpVnWR-57" value="응답 방식" style="text;html=1;strokeColor=none;fillColor=none;align=center;verticalAlign=middle;whiteSpace=wrap;rounded=0;fontSize=12;" parent="1" vertex="1">
          <mxGeometry x="-130" y="65" width="60" height="30" as="geometry" />
        </mxCell>
        <mxCell id="Rxt3rg6DZINgy6mpVnWR-58" value="Fowarding" style="text;html=1;strokeColor=none;fillColor=none;align=center;verticalAlign=middle;whiteSpace=wrap;rounded=0;fontSize=12;" parent="1" vertex="1">
          <mxGeometry x="-160" y="95" width="60" height="30" as="geometry" />
        </mxCell>
        <mxCell id="Rxt3rg6DZINgy6mpVnWR-59" value="Redirect" style="text;html=1;strokeColor=none;fillColor=none;align=center;verticalAlign=middle;whiteSpace=wrap;rounded=0;fontSize=12;" parent="1" vertex="1">
          <mxGeometry x="-100" y="95" width="60" height="30" as="geometry" />
        </mxCell>
        <mxCell id="Rxt3rg6DZINgy6mpVnWR-60" value="Redirect" style="endArrow=classic;html=1;rounded=0;fontSize=12;exitX=0;exitY=0.75;exitDx=0;exitDy=0;" parent="1" source="Rxt3rg6DZINgy6mpVnWR-6" edge="1">
          <mxGeometry width="50" height="50" relative="1" as="geometry">
            <mxPoint x="180" y="265" as="sourcePoint" />
            <mxPoint x="-210" y="315" as="targetPoint" />
          </mxGeometry>
        </mxCell>
        <mxCell id="Rxt3rg6DZINgy6mpVnWR-61" value="" style="endArrow=classic;html=1;rounded=0;fontSize=12;exitX=0;exitY=1;exitDx=0;exitDy=0;" parent="1" source="Rxt3rg6DZINgy6mpVnWR-6" edge="1">
          <mxGeometry width="50" height="50" relative="1" as="geometry">
            <mxPoint x="-140" y="355" as="sourcePoint" />
            <mxPoint x="-210" y="335" as="targetPoint" />
          </mxGeometry>
        </mxCell>
      </root>
    </mxGraphModel>
  </diagram>
  <diagram id="_ZdRYWDKvgoavVd_fcof" name="페이지-2">
    <mxGraphModel dx="1434" dy="731" grid="1" gridSize="10" guides="1" tooltips="1" connect="1" arrows="1" fold="1" page="1" pageScale="1" pageWidth="1169" pageHeight="827" math="0" shadow="0">
      <root>
        <mxCell id="0" />
        <mxCell id="1" parent="0" />
        <mxCell id="oBYSpcjBY8Dffp-uebYP-1" value="ProductDAO" style="swimlane;fontStyle=1;align=center;verticalAlign=top;childLayout=stackLayout;horizontal=1;startSize=26;horizontalStack=0;resizeParent=1;resizeParentMax=0;resizeLast=0;collapsible=1;marginBottom=0;" parent="1" vertex="1">
          <mxGeometry x="820" y="90" width="320" height="210" as="geometry" />
        </mxCell>
        <mxCell id="oBYSpcjBY8Dffp-uebYP-2" value="- sqlSession :  SqlSession&#xa;- NAMESPACE : String&#xa;&#xa;                &#xa;" style="text;strokeColor=none;fillColor=none;align=left;verticalAlign=top;spacingLeft=4;spacingRight=4;overflow=hidden;rotatable=0;points=[[0,0.5],[1,0.5]];portConstraint=eastwest;spacingBottom=2;whiteSpace=wrap;" parent="oBYSpcjBY8Dffp-uebYP-1" vertex="1">
          <mxGeometry y="26" width="320" height="44" as="geometry" />
        </mxCell>
        <mxCell id="oBYSpcjBY8Dffp-uebYP-3" value="" style="line;strokeWidth=1;fillColor=none;align=left;verticalAlign=middle;spacingTop=-1;spacingLeft=3;spacingRight=3;rotatable=0;labelPosition=right;points=[];portConstraint=eastwest;strokeColor=inherit;" parent="oBYSpcjBY8Dffp-uebYP-1" vertex="1">
          <mxGeometry y="70" width="320" height="8" as="geometry" />
        </mxCell>
        <mxCell id="oBYSpcjBY8Dffp-uebYP-4" value="+ getProductList(): List&lt;ProductDTO&gt;&#xa;+ getProductDetail(ProductDTO) : ProductDTO&#xa;+ getProductAdd(ProductDTO) : int" style="text;strokeColor=none;fillColor=none;align=left;verticalAlign=top;spacingLeft=4;spacingRight=4;overflow=hidden;rotatable=0;points=[[0,0.5],[1,0.5]];portConstraint=eastwest;fontSize=14;" parent="oBYSpcjBY8Dffp-uebYP-1" vertex="1">
          <mxGeometry y="78" width="320" height="132" as="geometry" />
        </mxCell>
        <mxCell id="oBYSpcjBY8Dffp-uebYP-5" value="Product" style="text;html=1;strokeColor=none;fillColor=none;align=center;verticalAlign=middle;whiteSpace=wrap;rounded=0;fontSize=14;" parent="1" vertex="1">
          <mxGeometry x="70" y="40" width="60" height="30" as="geometry" />
        </mxCell>
        <mxCell id="oBYSpcjBY8Dffp-uebYP-6" value="ProductService" style="swimlane;fontStyle=1;align=center;verticalAlign=top;childLayout=stackLayout;horizontal=1;startSize=26;horizontalStack=0;resizeParent=1;resizeParentMax=0;resizeLast=0;collapsible=1;marginBottom=0;fontSize=14;" parent="1" vertex="1">
          <mxGeometry x="410" y="90" width="370" height="210" as="geometry" />
        </mxCell>
        <mxCell id="oBYSpcjBY8Dffp-uebYP-7" value="- productDAO : ProductDAO" style="text;strokeColor=none;fillColor=none;align=left;verticalAlign=top;spacingLeft=4;spacingRight=4;overflow=hidden;rotatable=0;points=[[0,0.5],[1,0.5]];portConstraint=eastwest;fontSize=14;" parent="oBYSpcjBY8Dffp-uebYP-6" vertex="1">
          <mxGeometry y="26" width="370" height="26" as="geometry" />
        </mxCell>
        <mxCell id="oBYSpcjBY8Dffp-uebYP-8" value="" style="line;strokeWidth=1;fillColor=none;align=left;verticalAlign=middle;spacingTop=-1;spacingLeft=3;spacingRight=3;rotatable=0;labelPosition=right;points=[];portConstraint=eastwest;strokeColor=inherit;fontSize=14;" parent="oBYSpcjBY8Dffp-uebYP-6" vertex="1">
          <mxGeometry y="52" width="370" height="8" as="geometry" />
        </mxCell>
        <mxCell id="oBYSpcjBY8Dffp-uebYP-9" value="+ getProductList(): List&lt;ProductDTO&gt;&#xa;+ getProductDetail(ProductDTO) : ProductDTO&#xa;+ getProductAdd(ProductDTO, List&lt;ProductOptionDTO) : int" style="text;strokeColor=none;fillColor=none;align=left;verticalAlign=top;spacingLeft=4;spacingRight=4;overflow=hidden;rotatable=0;points=[[0,0.5],[1,0.5]];portConstraint=eastwest;fontSize=14;" parent="oBYSpcjBY8Dffp-uebYP-6" vertex="1">
          <mxGeometry y="60" width="370" height="150" as="geometry" />
        </mxCell>
        <mxCell id="oBYSpcjBY8Dffp-uebYP-10" value="ProductController" style="swimlane;fontStyle=1;align=center;verticalAlign=top;childLayout=stackLayout;horizontal=1;startSize=26;horizontalStack=0;resizeParent=1;resizeParentMax=0;resizeLast=0;collapsible=1;marginBottom=0;fontSize=14;" parent="1" vertex="1">
          <mxGeometry x="80" y="90" width="280" height="200" as="geometry" />
        </mxCell>
        <mxCell id="oBYSpcjBY8Dffp-uebYP-11" value="- productService : ProductService" style="text;strokeColor=none;fillColor=none;align=left;verticalAlign=top;spacingLeft=4;spacingRight=4;overflow=hidden;rotatable=0;points=[[0,0.5],[1,0.5]];portConstraint=eastwest;fontSize=14;" parent="oBYSpcjBY8Dffp-uebYP-10" vertex="1">
          <mxGeometry y="26" width="280" height="26" as="geometry" />
        </mxCell>
        <mxCell id="oBYSpcjBY8Dffp-uebYP-12" value="" style="line;strokeWidth=1;fillColor=none;align=left;verticalAlign=middle;spacingTop=-1;spacingLeft=3;spacingRight=3;rotatable=0;labelPosition=right;points=[];portConstraint=eastwest;strokeColor=inherit;fontSize=14;" parent="oBYSpcjBY8Dffp-uebYP-10" vertex="1">
          <mxGeometry y="52" width="280" height="8" as="geometry" />
        </mxCell>
        <mxCell id="oBYSpcjBY8Dffp-uebYP-13" value="+ getProductList(): ModelAndView&#xa;+ getProductDetail(ProductDTO) : String&#xa;+ getProductAdd : void&#xa;+ getProductAdd(ProductDTO) : String" style="text;strokeColor=none;fillColor=none;align=left;verticalAlign=top;spacingLeft=4;spacingRight=4;overflow=hidden;rotatable=0;points=[[0,0.5],[1,0.5]];portConstraint=eastwest;fontSize=14;" parent="oBYSpcjBY8Dffp-uebYP-10" vertex="1">
          <mxGeometry y="60" width="280" height="140" as="geometry" />
        </mxCell>
        <mxCell id="oBYSpcjBY8Dffp-uebYP-14" value="" style="endArrow=classic;html=1;rounded=0;fontSize=14;exitX=0.996;exitY=0.386;exitDx=0;exitDy=0;exitPerimeter=0;entryX=0.005;entryY=0.347;entryDx=0;entryDy=0;entryPerimeter=0;" parent="1" source="oBYSpcjBY8Dffp-uebYP-13" target="oBYSpcjBY8Dffp-uebYP-9" edge="1">
          <mxGeometry width="50" height="50" relative="1" as="geometry">
            <mxPoint x="600" y="350" as="sourcePoint" />
            <mxPoint x="650" y="300" as="targetPoint" />
          </mxGeometry>
        </mxCell>
        <mxCell id="oBYSpcjBY8Dffp-uebYP-15" value="" style="endArrow=classic;html=1;rounded=0;fontSize=14;exitX=0.997;exitY=0.373;exitDx=0;exitDy=0;exitPerimeter=0;entryX=0.006;entryY=0.23;entryDx=0;entryDy=0;entryPerimeter=0;" parent="1" source="oBYSpcjBY8Dffp-uebYP-9" target="oBYSpcjBY8Dffp-uebYP-4" edge="1">
          <mxGeometry width="50" height="50" relative="1" as="geometry">
            <mxPoint x="600" y="350" as="sourcePoint" />
            <mxPoint x="650" y="300" as="targetPoint" />
          </mxGeometry>
        </mxCell>
      </root>
    </mxGraphModel>
  </diagram>
  <diagram id="tC8yW7eEdy6gYAxEzrop" name="페이지-3">
    <mxGraphModel dx="1434" dy="731" grid="1" gridSize="10" guides="1" tooltips="1" connect="1" arrows="1" fold="1" page="1" pageScale="1" pageWidth="1169" pageHeight="827" math="0" shadow="0">
      <root>
        <mxCell id="0" />
        <mxCell id="1" parent="0" />
        <mxCell id="YxxCFiQ7qu43JqCeLLy1-1" value="Member" style="text;html=1;strokeColor=none;fillColor=none;align=center;verticalAlign=middle;whiteSpace=wrap;rounded=0;fontSize=14;" parent="1" vertex="1">
          <mxGeometry x="80" y="320" width="60" height="30" as="geometry" />
        </mxCell>
        <mxCell id="YxxCFiQ7qu43JqCeLLy1-2" value="MemberDAO" style="swimlane;fontStyle=1;align=center;verticalAlign=top;childLayout=stackLayout;horizontal=1;startSize=26;horizontalStack=0;resizeParent=1;resizeParentMax=0;resizeLast=0;collapsible=1;marginBottom=0;fontSize=14;" parent="1" vertex="1">
          <mxGeometry x="820" y="360" width="270" height="180" as="geometry" />
        </mxCell>
        <mxCell id="YxxCFiQ7qu43JqCeLLy1-3" value="- sqlSession : SqlSession&#xa;- NAMESPACE : String" style="text;strokeColor=none;fillColor=none;align=left;verticalAlign=top;spacingLeft=4;spacingRight=4;overflow=hidden;rotatable=0;points=[[0,0.5],[1,0.5]];portConstraint=eastwest;fontSize=14;" parent="YxxCFiQ7qu43JqCeLLy1-2" vertex="1">
          <mxGeometry y="26" width="270" height="54" as="geometry" />
        </mxCell>
        <mxCell id="YxxCFiQ7qu43JqCeLLy1-4" value="" style="line;strokeWidth=1;fillColor=none;align=left;verticalAlign=middle;spacingTop=-1;spacingLeft=3;spacingRight=3;rotatable=0;labelPosition=right;points=[];portConstraint=eastwest;strokeColor=inherit;fontSize=14;" parent="YxxCFiQ7qu43JqCeLLy1-2" vertex="1">
          <mxGeometry y="80" width="270" height="8" as="geometry" />
        </mxCell>
        <mxCell id="YxxCFiQ7qu43JqCeLLy1-5" value="+ setMemberJoin(MemberDTO) : int &#xa;+ getMemberLogin(MemberDTO) " style="text;strokeColor=none;fillColor=none;align=left;verticalAlign=top;spacingLeft=4;spacingRight=4;overflow=hidden;rotatable=0;points=[[0,0.5],[1,0.5]];portConstraint=eastwest;fontSize=14;" parent="YxxCFiQ7qu43JqCeLLy1-2" vertex="1">
          <mxGeometry y="88" width="270" height="92" as="geometry" />
        </mxCell>
        <mxCell id="YxxCFiQ7qu43JqCeLLy1-6" value="MemberService" style="swimlane;fontStyle=1;align=center;verticalAlign=top;childLayout=stackLayout;horizontal=1;startSize=26;horizontalStack=0;resizeParent=1;resizeParentMax=0;resizeLast=0;collapsible=1;marginBottom=0;fontSize=14;" parent="1" vertex="1">
          <mxGeometry x="410" y="360" width="370" height="180" as="geometry" />
        </mxCell>
        <mxCell id="YxxCFiQ7qu43JqCeLLy1-7" value="- memberDAO : MemberDAO" style="text;strokeColor=none;fillColor=none;align=left;verticalAlign=top;spacingLeft=4;spacingRight=4;overflow=hidden;rotatable=0;points=[[0,0.5],[1,0.5]];portConstraint=eastwest;fontSize=14;" parent="YxxCFiQ7qu43JqCeLLy1-6" vertex="1">
          <mxGeometry y="26" width="370" height="26" as="geometry" />
        </mxCell>
        <mxCell id="YxxCFiQ7qu43JqCeLLy1-8" value="" style="line;strokeWidth=1;fillColor=none;align=left;verticalAlign=middle;spacingTop=-1;spacingLeft=3;spacingRight=3;rotatable=0;labelPosition=right;points=[];portConstraint=eastwest;strokeColor=inherit;fontSize=14;" parent="YxxCFiQ7qu43JqCeLLy1-6" vertex="1">
          <mxGeometry y="52" width="370" height="8" as="geometry" />
        </mxCell>
        <mxCell id="YxxCFiQ7qu43JqCeLLy1-9" value="+ setMemberJoin(MemberDTO) : int&#xa;+ getMemberLogin(MemberDTO) : " style="text;strokeColor=none;fillColor=none;align=left;verticalAlign=top;spacingLeft=4;spacingRight=4;overflow=hidden;rotatable=0;points=[[0,0.5],[1,0.5]];portConstraint=eastwest;fontSize=14;" parent="YxxCFiQ7qu43JqCeLLy1-6" vertex="1">
          <mxGeometry y="60" width="370" height="120" as="geometry" />
        </mxCell>
        <mxCell id="YxxCFiQ7qu43JqCeLLy1-10" value="MemberController&#xa;" style="swimlane;fontStyle=1;align=center;verticalAlign=top;childLayout=stackLayout;horizontal=1;startSize=26;horizontalStack=0;resizeParent=1;resizeParentMax=0;resizeLast=0;collapsible=1;marginBottom=0;fontSize=14;" parent="1" vertex="1">
          <mxGeometry x="80" y="360" width="280" height="180" as="geometry" />
        </mxCell>
        <mxCell id="YxxCFiQ7qu43JqCeLLy1-11" value="- memberService : MemberService" style="text;strokeColor=none;fillColor=none;align=left;verticalAlign=top;spacingLeft=4;spacingRight=4;overflow=hidden;rotatable=0;points=[[0,0.5],[1,0.5]];portConstraint=eastwest;fontSize=14;" parent="YxxCFiQ7qu43JqCeLLy1-10" vertex="1">
          <mxGeometry y="26" width="280" height="26" as="geometry" />
        </mxCell>
        <mxCell id="YxxCFiQ7qu43JqCeLLy1-12" value="" style="line;strokeWidth=1;fillColor=none;align=left;verticalAlign=middle;spacingTop=-1;spacingLeft=3;spacingRight=3;rotatable=0;labelPosition=right;points=[];portConstraint=eastwest;strokeColor=inherit;fontSize=14;" parent="YxxCFiQ7qu43JqCeLLy1-10" vertex="1">
          <mxGeometry y="52" width="280" height="8" as="geometry" />
        </mxCell>
        <mxCell id="YxxCFiQ7qu43JqCeLLy1-13" value="+ setMemberJoin() : void&#xa;+ setMemberJoin(MemberDTO) : String&#xa;+ getMemberLogin() : void&#xa;+ getMemberLogin(MemberDTO) : String" style="text;strokeColor=none;fillColor=none;align=left;verticalAlign=top;spacingLeft=4;spacingRight=4;overflow=hidden;rotatable=0;points=[[0,0.5],[1,0.5]];portConstraint=eastwest;fontSize=14;" parent="YxxCFiQ7qu43JqCeLLy1-10" vertex="1">
          <mxGeometry y="60" width="280" height="120" as="geometry" />
        </mxCell>
      </root>
    </mxGraphModel>
  </diagram>
  <diagram id="8nCJ14SvMVs6VuS79M9T" name="페이지-4">
    <mxGraphModel dx="1434" dy="788" grid="1" gridSize="10" guides="1" tooltips="1" connect="1" arrows="1" fold="1" page="1" pageScale="1" pageWidth="1169" pageHeight="827" math="0" shadow="0">
      <root>
        <mxCell id="0" />
        <mxCell id="1" parent="0" />
      </root>
    </mxGraphModel>
  </diagram>
</mxfile>
